HIERARCHY
ROOT Hips
{
	OFFSET 40.855900 -6.116446 100.179001
	CHANNELS 6 Xposition Yposition Zposition Xrotation Yrotation Zrotation
	JOINT spine
	{
		OFFSET 0.000000 -0.507025 8.817039
		CHANNELS 3 Xrotation Yrotation Zrotation
		JOINT spine1
		{
			OFFSET 0.000000 -0.000002 10.776604
			CHANNELS 3 Xrotation Yrotation Zrotation
			JOINT spine2
			{
				OFFSET 0.000000 -0.000001 10.325897
				CHANNELS 3 Xrotation Yrotation Zrotation
				JOINT Neck
				{
					OFFSET 0.000000 -1.263955 26.511002
					CHANNELS 3 Xrotation Yrotation Zrotation
					JOINT Head
					{
						OFFSET 0.000000 -0.000001 8.009659
						CHANNELS 3 Xrotation Yrotation Zrotation
						End Site
						{
							OFFSET 0.000000 6.393857 19.387894
						}
					}
				}
				JOINT RightShoulder
				{
					OFFSET -4.347950 0.605420 11.151199
					CHANNELS 3 Xrotation Yrotation Zrotation
					JOINT RightArm
					{
						OFFSET 0.000000 -0.000002 14.625793
						CHANNELS 3 Xrotation Yrotation Zrotation
						JOINT RightArmRoll
						{
							OFFSET 0.000000 -0.000001 7.383408
							CHANNELS 3 Xrotation Yrotation Zrotation
							JOINT RightForeArm
							{
								OFFSET 0.000000 -0.000003 21.505203
								CHANNELS 3 Xrotation Yrotation Zrotation
								JOINT RightForeArmRoll
								{
									OFFSET 0.000000 -0.000001 8.285324
									CHANNELS 3 Xrotation Yrotation Zrotation
									JOINT RightHand
									{
										OFFSET 0.000000 -0.000003 16.626801
										CHANNELS 3 Xrotation Yrotation Zrotation
										End Site
										{
											OFFSET 0.000000 0.000000 0.100006
										}
									}
								}
							}
						}
					}
				}
				JOINT LeftShoulder
				{
					OFFSET 4.347950 0.605420 11.151199
					CHANNELS 3 Xrotation Yrotation Zrotation
					JOINT LeftArm
					{
						OFFSET 0.000000 -0.000002 14.625793
						CHANNELS 3 Xrotation Yrotation Zrotation
						JOINT LeftArmRoll
						{
							OFFSET 0.000000 -0.000001 7.383408
							CHANNELS 3 Xrotation Yrotation Zrotation
							JOINT LeftForeArm
							{
								OFFSET 0.000000 -0.000003 21.505203
								CHANNELS 3 Xrotation Yrotation Zrotation
								JOINT LeftForeArmRoll
								{
									OFFSET 0.000000 -0.000001 8.285324
									CHANNELS 3 Xrotation Yrotation Zrotation
									JOINT LeftHand
									{
										OFFSET 0.000000 -0.000003 16.626801
										CHANNELS 3 Xrotation Yrotation Zrotation
										End Site
										{
											OFFSET 0.000000 0.000000 0.100006
										}
									}
								}
							}
						}
					}
				}
			}
		}
	}
	JOINT RightUpLeg
	{
		OFFSET -7.815102 1.202170 -1.433090
		CHANNELS 3 Xrotation Yrotation Zrotation
		JOINT RightUpLegRoll
		{
			OFFSET 0.000000 -0.000003 19.495895
			CHANNELS 3 Xrotation Yrotation Zrotation
			JOINT RightLeg
			{
				OFFSET 0.000000 0.000004 -24.142700
				CHANNELS 3 Xrotation Yrotation Zrotation
				JOINT RightLegRoll
				{
					OFFSET 0.000000 -0.000004 24.221703
					CHANNELS 3 Xrotation Yrotation Zrotation
					JOINT RightFoot
					{
						OFFSET 0.000000 -0.000003 20.160500
						CHANNELS 3 Xrotation Yrotation Zrotation
						JOINT RightToeBase
						{
							OFFSET 0.000000 -0.000003 16.853195
							CHANNELS 3 Xrotation Yrotation Zrotation
							End Site
							{
								OFFSET 0.007145 0.940778 8.161865
							}
						}
					}
				}
			}
		}
	}
	JOINT LeftUpLeg
	{
		OFFSET 7.815102 1.202170 -1.433090
		CHANNELS 3 Xrotation Yrotation Zrotation
		JOINT LeftUpLegRoll
		{
			OFFSET 0.000000 -0.000003 19.496002
			CHANNELS 3 Xrotation Yrotation Zrotation
			JOINT LeftLeg
			{
				OFFSET 0.000000 -0.000004 24.142593
				CHANNELS 3 Xrotation Yrotation Zrotation
				JOINT LeftLegRoll
				{
					OFFSET 0.000000 -0.000004 24.445602
					CHANNELS 3 Xrotation Yrotation Zrotation
					JOINT LeftFoot
					{
						OFFSET 0.000000 -0.000003 19.936600
						CHANNELS 3 Xrotation Yrotation Zrotation
						JOINT LeftToeBase
						{
							OFFSET 0.000000 -0.000003 16.853195
							CHANNELS 3 Xrotation Yrotation Zrotation
							End Site
							{
								OFFSET -0.032013 0.940779 8.161865
							}
						}
					}
				}
			}
		}
	}
}
MOTION
Frames: 5
Frame Time: 0.041667
47.841801 -12.722912 99.844414 3.575061 -0.017635 -0.211175 -1.620540 -0.354917 0.103319 0.762307 -0.711558 0.185495 2.407424 -0.709284 0.194006 18.865172 8.194525 1.994802 -0.369540 -1.458610 2.449344 -1.641002 -64.147982 -2.571150 -42.260805 -117.125873 -46.743796 0.000000 -0.000027 0.000002 20.447361 -22.722501 4.585254 -0.000008 0.000009 -2.999990 -5.000242 -7.999600 0.000147 -15.582861 64.112069 18.535177 -37.504343 112.005335 33.843744 0.000001 -0.000024 0.000002 12.000584 13.654020 -1.060989 -0.000007 -0.000003 3.000000 -5.000191 7.998693 -0.000179 -10.680062 -177.334906 -0.804303 179.999991 -0.000005 -0.894996 167.481006 -1.830456 -0.881357 -0.000007 0.000006 0.094659 69.744564 6.394818 3.391435 25.456651 -7.349072 -0.000415 -11.852642 176.063480 1.157674 -0.000005 -0.000004 -1.003620 -17.686790 3.592067 1.125930 -0.000000 -0.000001 -0.284041 72.092920 -6.819191 -2.123426 26.127294 7.338930 -0.979378 
47.843704 -12.682913 99.891914 3.730530 0.018392 -0.218069 -1.626341 -0.363157 0.101145 0.750704 -0.728017 0.182024 2.395821 -0.725784 0.190732 18.636866 8.244141 1.985966 -0.388893 -1.479146 2.429221 -1.599814 -64.117424 -2.520745 -42.290025 -117.179504 -46.903114 0.000000 -0.000027 0.000001 20.453521 -22.791981 4.612066 -0.000006 0.000009 -2.999990 -5.000239 -7.999598 0.000149 -15.638956 64.099058 18.599278 -37.578301 112.133879 33.815539 0.000001 -0.000023 0.000002 11.940139 13.552114 -1.034563 -0.000005 -0.000004 3.000000 -5.000190 7.998694 -0.000179 -10.997858 -177.375040 -0.850494 179.999991 -0.000005 -0.892004 167.265268 -1.819160 -0.891042 -0.000007 0.000006 0.100836 69.806719 6.409370 3.351250 25.455953 -7.349068 -0.001527 -12.178214 175.991968 1.099170 -0.000005 -0.000004 -1.001200 -17.902928 3.639708 1.144677 0.000000 -0.000001 -0.287514 72.109230 -6.818019 -2.123746 26.148816 7.338978 -0.984449 
47.851006 -12.581312 99.837311 3.886574 0.054340 -0.224326 -1.632672 -0.371420 0.098750 0.738032 -0.744517 0.178143 2.383160 -0.742330 0.187050 18.413678 8.295768 1.977351 -0.409829 -1.500782 2.409297 -1.556673 -64.087180 -2.468158 -42.315552 -117.230567 -47.066478 0.000000 -0.000027 0.000003 20.466696 -22.864738 4.641537 -0.000010 0.000009 -2.999989 -5.000242 -7.999598 0.000147 -15.696103 64.086306 18.664610 -37.652022 112.260142 33.786514 0.000000 -0.000022 0.000002 11.879488 13.450363 -1.008373 -0.000005 -0.000003 3.000001 -5.000188 7.998694 -0.000179 -11.313623 -177.417101 -0.897754 179.999991 -0.000004 -0.889996 167.056742 -1.806921 -0.900207 -0.000007 0.000006 0.106821 69.865493 6.424061 3.310473 25.454838 -7.349064 -0.003203 -12.502175 175.919759 1.042239 -0.000004 -0.000004 -0.998847 -18.113585 3.687052 1.163898 -0.000000 -0.000001 -0.290932 72.122324 -6.816861 -2.124263 26.168924 7.339052 -0.990201 
47.857601 -12.546612 99.857704 4.043005 0.090225 -0.230195 -1.639385 -0.379698 0.096201 0.724614 -0.761045 0.173973 2.369739 -0.758907 0.183078 18.194155 8.348855 1.969005 -0.431881 -1.523178 2.389490 -1.512204 -64.057250 -2.414079 -42.336514 -117.281165 -47.230406 0.000000 -0.000027 0.000002 20.484798 -22.939802 4.672900 -0.000005 0.000009 -2.999990 -5.000242 -7.999600 0.000147 -15.754084 64.073950 18.730894 -37.722786 112.385743 33.753948 0.000001 -0.000024 0.000001 11.818731 13.348759 -0.982438 -0.000007 -0.000004 3.000001 -5.000190 7.998694 -0.000179 -11.627850 -177.461128 -0.945516 179.999991 -0.000004 -0.888002 166.853243 -1.793756 -0.908895 -0.000007 0.000006 0.112671 69.921917 6.438821 3.269427 25.453424 -7.349056 -0.005277 -12.825123 175.846868 0.986661 -0.000005 -0.000004 -0.996547 -18.320171 3.734167 1.183533 -0.000000 -0.000001 -0.294309 72.133279 -6.815717 -2.124815 26.188030 7.339142 -0.996441 
47.873299 -12.317110 99.799309 4.199679 0.126063 -0.235930 -1.646306 -0.387985 0.093561 0.710770 -0.777587 0.169633 2.355895 -0.775500 0.178937 17.976559 8.402846 1.961039 -0.454566 -1.545992 2.369755 -1.467019 -64.027505 -2.359199 -42.355219 -117.330957 -47.395154 0.000001 -0.000027 0.000002 20.505780 -23.016097 4.705369 -0.000008 0.000009 -2.999990 -5.000242 -7.999601 0.000145 -15.812393 64.061628 18.797570 -37.793609 112.510318 33.721057 0.000000 -0.000023 0.000002 11.757967 13.247300 -0.956758 -0.000006 -0.000003 3.000000 -5.000189 7.998693 -0.000179 -11.941171 -177.504131 -0.993844 179.999991 -0.000005 -0.885993 166.652736 -1.779625 -0.918164 -0.000008 0.000006 0.118444 69.977057 6.453645 3.227953 25.451908 -7.349050 -0.007558 -13.147572 175.773334 0.932221 -0.000005 -0.000005 -0.994275 -18.524581 3.781096 1.203554 0.000000 -0.000001 -0.297665 72.142937 -6.814585 -2.125345 26.206616 7.339235 -1.002966 
